<?xml version="1.0" encoding="utf-8"?>
<!-- Generator: Adobe Illustrator 17.0.0, SVG Export Plug-In . SVG Version: 6.00 Build 0)  -->
<!DOCTYPE svg PUBLIC "-//W3C//DTD SVG 1.1//EN" "http://www.w3.org/Graphics/SVG/1.1/DTD/svg11.dtd">
<svg version="1.1" id="Layer_1" xmlns="http://www.w3.org/2000/svg" xmlns:xlink="http://www.w3.org/1999/xlink" x="0px" y="0px"
	 width="164.218px" height="46.401px" viewBox="0 0 164.218 46.401" enable-background="new 0 0 164.218 46.401"
	 xml:space="preserve">
<g>
	<path fill="#326068" d="M4.231,11.822v0.405c1.012-0.81,2.112-1.431,3.3-1.863c1.188-0.432,2.456-0.647,3.806-0.647
		c0.594,0,1.231,0.041,1.913,0.121c0.681,0.081,1.309,0.227,1.883,0.436c0.573,0.209,1.049,0.496,1.427,0.86
		c0.377,0.364,0.566,0.837,0.566,1.417c0,0.297-0.057,0.574-0.172,0.83s-0.267,0.482-0.456,0.678s-0.412,0.348-0.668,0.455
		c-0.256,0.108-0.533,0.162-0.83,0.162c-0.256,0-0.553-0.074-0.891-0.223c-0.85-0.337-1.775-0.506-2.773-0.506
		c-0.985,0-1.91,0.186-2.773,0.557s-1.616,0.877-2.257,1.518c-0.641,0.641-1.147,1.394-1.518,2.257s-0.557,1.789-0.557,2.773v9.231
		c0,0.581-0.206,1.077-0.618,1.488c-0.412,0.412-0.908,0.618-1.488,0.618c-0.594,0-1.097-0.206-1.508-0.618
		C0.206,31.361,0,30.865,0,30.285V11.822c0-0.58,0.206-1.076,0.617-1.488c0.412-0.412,0.915-0.617,1.508-0.617
		c0.58,0,1.076,0.206,1.488,0.617C4.025,10.747,4.231,11.242,4.231,11.822z"/>
	<path fill="#326068" d="M42.188,21.054c0,3.158-1.107,5.83-3.32,8.017c-2.241,2.213-4.913,3.32-8.017,3.32
		c-3.131,0-5.803-1.106-8.017-3.32s-3.32-4.886-3.32-8.017s1.106-5.803,3.32-8.017s4.885-3.32,8.017-3.32
		c3.104,0,5.776,1.106,8.017,3.32c1.106,1.107,1.933,2.328,2.48,3.664C41.895,18.037,42.174,19.488,42.188,21.054z M30.852,13.948
		c-0.999,0-1.93,0.189-2.793,0.566c-0.864,0.378-1.613,0.888-2.247,1.529c-0.635,0.641-1.137,1.394-1.508,2.257
		c-0.372,0.864-0.557,1.782-0.557,2.753s0.185,1.89,0.557,2.753c0.371,0.864,0.874,1.617,1.508,2.257
		c0.634,0.641,1.383,1.151,2.247,1.528c0.863,0.378,1.794,0.567,2.793,0.567c0.985,0,1.91-0.189,2.773-0.567
		c0.863-0.377,1.616-0.891,2.257-1.539c0.641-0.647,1.147-1.4,1.518-2.257s0.557-1.771,0.557-2.743s-0.186-1.886-0.557-2.743
		c-0.371-0.857-0.877-1.609-1.518-2.257c-0.642-0.647-1.394-1.16-2.257-1.539C32.761,14.137,31.836,13.948,30.852,13.948z"/>
	<path fill="#326068" d="M49.658,12.228c2.011-1.673,4.379-2.51,7.105-2.51c3.104,0,5.776,1.106,8.017,3.32
		c1.106,1.093,1.937,2.311,2.49,3.654c0.553,1.343,0.83,2.797,0.83,4.363c0,3.158-1.107,5.83-3.32,8.017
		c-2.241,2.213-4.913,3.32-8.017,3.32c-3.131,0-5.803-1.106-8.017-3.32s-3.32-4.886-3.32-8.017V2.105
		c0-0.607,0.199-1.11,0.597-1.508C46.422,0.199,46.925,0,47.533,0c0.593,0,1.096,0.199,1.508,0.597
		c0.412,0.398,0.618,0.901,0.618,1.508V12.228z M56.764,28.159c0.985,0,1.91-0.189,2.773-0.567c0.863-0.377,1.616-0.891,2.257-1.539
		c0.641-0.647,1.147-1.4,1.518-2.257s0.557-1.771,0.557-2.743s-0.186-1.886-0.557-2.743c-0.371-0.857-0.877-1.609-1.518-2.257
		c-0.642-0.647-1.394-1.16-2.257-1.539c-0.864-0.377-1.789-0.566-2.773-0.566c-0.999,0-1.93,0.189-2.793,0.566
		c-0.864,0.378-1.613,0.888-2.247,1.529c-0.635,0.641-1.137,1.394-1.508,2.257c-0.372,0.864-0.557,1.782-0.557,2.753
		s0.185,1.89,0.557,2.753c0.371,0.864,0.874,1.617,1.508,2.257c0.634,0.641,1.383,1.151,2.247,1.528
		C54.833,27.97,55.765,28.159,56.764,28.159z"/>
	<path fill="#326068" d="M94.012,21.054c0,3.158-1.107,5.83-3.32,8.017c-2.241,2.213-4.913,3.32-8.017,3.32
		c-3.131,0-5.803-1.106-8.017-3.32s-3.32-4.886-3.32-8.017s1.106-5.803,3.32-8.017s4.885-3.32,8.017-3.32
		c3.104,0,5.776,1.106,8.017,3.32c1.106,1.107,1.933,2.328,2.48,3.664C93.719,18.037,93.999,19.488,94.012,21.054z M82.676,13.948
		c-0.999,0-1.93,0.189-2.793,0.566c-0.864,0.378-1.613,0.888-2.247,1.529C77,16.685,76.498,17.437,76.127,18.3
		c-0.372,0.864-0.557,1.782-0.557,2.753s0.185,1.89,0.557,2.753c0.371,0.864,0.874,1.617,1.508,2.257
		c0.634,0.641,1.383,1.151,2.247,1.528c0.863,0.378,1.794,0.567,2.793,0.567c0.985,0,1.91-0.189,2.773-0.567
		c0.863-0.377,1.616-0.891,2.257-1.539c0.641-0.647,1.147-1.4,1.518-2.257s0.557-1.771,0.557-2.743s-0.186-1.886-0.557-2.743
		c-0.371-0.857-0.877-1.609-1.518-2.257c-0.642-0.647-1.394-1.16-2.257-1.539C84.585,14.137,83.661,13.948,82.676,13.948z"/>
	<path fill="#326068" d="M99.235,9.717h0.951V2.105c0-0.58,0.206-1.076,0.618-1.488C101.216,0.206,101.718,0,102.312,0
		c0.58,0,1.076,0.206,1.488,0.618c0.412,0.412,0.617,0.908,0.617,1.488v7.612h2.531c0.58,0,1.073,0.206,1.478,0.617
		c0.405,0.412,0.607,0.908,0.607,1.488c0,0.594-0.203,1.097-0.607,1.508c-0.405,0.412-0.897,0.618-1.478,0.618h-2.531v10.183
		c0,2.686,1.35,4.028,4.049,4.028c0.58,0,1.073,0.206,1.478,0.618s0.607,0.908,0.607,1.488c0,0.594-0.203,1.097-0.607,1.508
		c-0.405,0.412-0.898,0.618-1.478,0.618c-5.52,0-8.28-2.753-8.28-8.259V13.948h-0.951c-0.567,0-1.056-0.206-1.468-0.618
		c-0.412-0.412-0.618-0.914-0.618-1.508c0-0.58,0.206-1.076,0.618-1.488C98.179,9.923,98.668,9.717,99.235,9.717z"/>
	<path fill="#326068" d="M119.175,5.688c0,0.688-0.243,1.275-0.729,1.761s-1.073,0.729-1.761,0.729
		c-0.688,0-1.275-0.243-1.761-0.729s-0.729-1.073-0.729-1.761c0-0.688,0.243-1.275,0.729-1.761s1.073-0.729,1.761-0.729
		c0.688,0,1.275,0.243,1.761,0.729S119.175,5,119.175,5.688z M114.58,30.265V11.843c0-0.594,0.206-1.096,0.618-1.508
		c0.412-0.412,0.908-0.617,1.488-0.617s1.076,0.206,1.488,0.617c0.412,0.412,0.625,0.915,0.638,1.508v18.422
		c-0.013,0.594-0.226,1.097-0.638,1.508c-0.412,0.412-0.908,0.618-1.488,0.618s-1.076-0.206-1.488-0.618
		C114.786,31.361,114.58,30.858,114.58,30.265z"/>
	<path fill="#326068" d="M140.411,25.973c0.607,0,1.11,0.2,1.508,0.597c0.398,0.398,0.597,0.901,0.597,1.508
		c0,0.594-0.223,1.113-0.668,1.559c-2.092,1.835-4.555,2.753-7.389,2.753c-3.131,0-5.803-1.106-8.017-3.32s-3.32-4.886-3.32-8.017
		s1.106-5.803,3.32-8.017s4.885-3.32,8.017-3.32c2.848,0,5.311,0.918,7.389,2.753c0.486,0.432,0.729,0.965,0.729,1.599
		c0,0.607-0.199,1.114-0.597,1.519s-0.901,0.607-1.508,0.607c-0.513,0-0.972-0.162-1.376-0.486c-0.688-0.581-1.41-1.019-2.166-1.316
		s-1.579-0.445-2.47-0.445c-0.985,0-1.91,0.186-2.773,0.557s-1.62,0.877-2.267,1.518c-0.648,0.641-1.158,1.394-1.529,2.257
		s-0.557,1.789-0.557,2.773c0,0.985,0.186,1.91,0.557,2.773s0.881,1.616,1.529,2.257c0.647,0.642,1.403,1.147,2.267,1.519
		s1.788,0.557,2.773,0.557c0.891,0,1.714-0.145,2.47-0.435s1.471-0.726,2.146-1.306C139.452,26.135,139.897,25.986,140.411,25.973z"
		/>
	<path fill="#326068" d="M149.966,21.6c-1.269-0.486-2.159-0.985-2.672-1.498h0.02c-1.026-1.039-1.539-2.26-1.539-3.664
		c0-1.025,0.273-1.954,0.82-2.784c0.547-0.83,1.258-1.535,2.136-2.115c0.877-0.58,1.866-1.029,2.966-1.346
		c1.1-0.317,2.203-0.476,3.31-0.476c3.374,0,6.269,1.356,8.685,4.069c0.283,0.351,0.425,0.776,0.425,1.275
		c0,0.607-0.199,1.11-0.598,1.508c-0.397,0.398-0.9,0.597-1.507,0.597c-0.432,0-0.8-0.122-1.104-0.365
		c-0.304-0.243-0.597-0.506-0.88-0.79c-1.377-1.376-3.05-2.064-5.021-2.064c-1.943,0-3.496,0.594-4.656,1.781
		c-0.216,0.216-0.324,0.513-0.324,0.891c0,0.378,0.175,0.635,0.526,0.77l9.474,3.117c1.322,0.513,2.213,1.012,2.672,1.498h-0.02
		c1.025,1.04,1.539,2.261,1.539,3.665c0,1.039-0.273,1.97-0.82,2.793c-0.547,0.823-1.259,1.528-2.136,2.115
		c-0.877,0.587-1.863,1.036-2.956,1.346c-1.093,0.311-2.193,0.466-3.3,0.466c-3.401,0-6.296-1.343-8.685-4.028
		c-0.297-0.392-0.445-0.83-0.445-1.316c0-0.607,0.199-1.11,0.597-1.508c0.398-0.398,0.901-0.597,1.508-0.597
		c0.446,0,0.823,0.131,1.134,0.395s0.594,0.517,0.85,0.759c1.377,1.376,3.057,2.065,5.041,2.065c1.93,0,3.482-0.607,4.656-1.822
		c0.203-0.229,0.304-0.506,0.304-0.83c0-0.378-0.182-0.641-0.546-0.79L149.966,21.6z"/>
</g>
<g>
	<path fill="#326068" d="M0.543,35.461c-0.033-0.1-0.066-0.199-0.066-0.299c0-0.349,0.315-0.664,0.681-0.664
		c0.332,0,0.581,0.249,0.681,0.548l3.204,9.23l3.038-9.264c0.1-0.299,0.299-0.515,0.647-0.515h0.083
		c0.332,0,0.548,0.216,0.647,0.515l3.038,9.264l3.221-9.264c0.1-0.299,0.315-0.515,0.631-0.515c0.349,0,0.664,0.315,0.664,0.647
		c0,0.1-0.05,0.216-0.083,0.315L13.21,45.787c-0.116,0.332-0.349,0.564-0.681,0.564h-0.1c-0.332,0-0.564-0.232-0.681-0.564
		l-3.021-8.932l-3.005,8.932c-0.116,0.332-0.349,0.564-0.681,0.564h-0.1c-0.332,0-0.564-0.216-0.681-0.564L0.543,35.461z"/>
	<path fill="#326068" d="M24.64,40.425v-0.033c0-3.204,2.407-6.01,5.943-6.01s5.91,2.772,5.91,5.977v0.033
		c0,3.204-2.407,6.01-5.943,6.01S24.64,43.629,24.64,40.425z M35.132,40.425v-0.033c0-2.64-1.926-4.798-4.582-4.798
		s-4.549,2.125-4.549,4.765v0.033c0,2.64,1.926,4.798,4.582,4.798S35.132,43.064,35.132,40.425z"/>
	<path fill="#326068" d="M45.415,35.245c0-0.365,0.299-0.664,0.647-0.664h4.35c1.428,0,2.573,0.432,3.304,1.162
		c0.564,0.564,0.896,1.378,0.896,2.291v0.033c0,1.909-1.295,3.021-3.104,3.37l2.889,3.719c0.133,0.149,0.216,0.299,0.216,0.481
		c0,0.349-0.332,0.647-0.664,0.647c-0.266,0-0.465-0.149-0.614-0.349l-3.271-4.25h-3.337v3.935c0,0.365-0.299,0.664-0.664,0.664
		c-0.349,0-0.647-0.299-0.647-0.664V35.245z M50.296,40.508c1.743,0,2.988-0.896,2.988-2.391v-0.033
		c0-1.428-1.096-2.291-2.972-2.291h-3.586v4.715H50.296z"/>
	<path fill="#326068" d="M63.566,35.162c0-0.365,0.299-0.664,0.647-0.664c0.365,0,0.664,0.299,0.664,0.664v6.358l6.624-6.79
		c0.149-0.133,0.299-0.232,0.515-0.232c0.349,0,0.631,0.315,0.631,0.647c0,0.183-0.083,0.332-0.216,0.465l-4.117,4.084l4.416,5.445
		c0.116,0.149,0.183,0.282,0.183,0.481c0,0.349-0.299,0.664-0.664,0.664c-0.249,0-0.415-0.133-0.531-0.299l-4.333-5.396
		l-2.507,2.507v2.523c0,0.365-0.299,0.664-0.664,0.664c-0.349,0-0.647-0.299-0.647-0.664V35.162z"/>
	<path fill="#326068" d="M81.004,44.808c-0.149-0.1-0.249-0.282-0.249-0.498c0-0.365,0.282-0.647,0.631-0.647
		c0.166,0,0.315,0.066,0.398,0.149c1.096,0.93,2.191,1.378,3.669,1.378c1.561,0,2.59-0.83,2.59-1.976v-0.033
		c0-1.079-0.581-1.693-3.021-2.208c-2.673-0.581-3.901-1.444-3.901-3.354v-0.033c0-1.826,1.61-3.171,3.818-3.171
		c1.527,0,2.64,0.382,3.702,1.146c0.133,0.1,0.282,0.282,0.282,0.531c0,0.349-0.282,0.631-0.631,0.631
		c-0.149,0-0.266-0.033-0.382-0.116c-0.979-0.714-1.926-1.013-3.005-1.013c-1.511,0-2.474,0.83-2.474,1.876v0.033
		c0,1.096,0.598,1.71,3.154,2.258c2.59,0.564,3.785,1.511,3.785,3.287v0.033c0,1.992-1.66,3.287-3.968,3.287
		C83.71,46.368,82.299,45.837,81.004,44.808z"/>
	<path fill="#326068" d="M98.192,35.162c0-0.365,0.299-0.664,0.647-0.664c0.365,0,0.664,0.299,0.664,0.664v4.582h6.707v-4.582
		c0-0.365,0.299-0.664,0.664-0.664c0.349,0,0.647,0.299,0.647,0.664v10.459c0,0.365-0.299,0.664-0.647,0.664
		c-0.365,0-0.664-0.299-0.664-0.664v-4.648h-6.707v4.648c0,0.365-0.299,0.664-0.664,0.664c-0.349,0-0.647-0.299-0.647-0.664V35.162z
		"/>
	<path fill="#326068" d="M116.443,40.425v-0.033c0-3.204,2.407-6.01,5.943-6.01s5.91,2.772,5.91,5.977v0.033
		c0,3.204-2.407,6.01-5.943,6.01S116.443,43.629,116.443,40.425z M126.935,40.425v-0.033c0-2.64-1.926-4.798-4.582-4.798
		s-4.549,2.125-4.549,4.765v0.033c0,2.64,1.926,4.798,4.582,4.798S126.935,43.064,126.935,40.425z"/>
	<path fill="#326068" d="M137.218,35.245c0-0.365,0.299-0.664,0.647-0.664h3.702c2.623,0,4.35,1.395,4.35,3.686V38.3
		c0,2.507-2.092,3.802-4.565,3.802h-2.822v3.52c0,0.365-0.299,0.664-0.664,0.664c-0.349,0-0.647-0.299-0.647-0.664V35.245z
		 M141.401,40.906c1.926,0,3.188-1.029,3.188-2.557v-0.033c0-1.66-1.245-2.523-3.121-2.523h-2.938v5.113H141.401z"/>
	<path fill="#326068" d="M154.04,44.808c-0.149-0.1-0.249-0.282-0.249-0.498c0-0.365,0.282-0.647,0.631-0.647
		c0.166,0,0.315,0.066,0.398,0.149c1.096,0.93,2.191,1.378,3.669,1.378c1.561,0,2.59-0.83,2.59-1.976v-0.033
		c0-1.079-0.581-1.693-3.021-2.208c-2.673-0.581-3.901-1.444-3.901-3.354v-0.033c0-1.826,1.61-3.171,3.818-3.171
		c1.527,0,2.64,0.382,3.702,1.146c0.133,0.1,0.282,0.282,0.282,0.531c0,0.349-0.282,0.631-0.631,0.631
		c-0.149,0-0.266-0.033-0.382-0.116c-0.979-0.714-1.926-1.013-3.005-1.013c-1.511,0-2.474,0.83-2.474,1.876v0.033
		c0,1.096,0.598,1.71,3.154,2.258c2.59,0.564,3.785,1.511,3.785,3.287v0.033c0,1.992-1.66,3.287-3.968,3.287
		C156.746,46.368,155.335,45.837,154.04,44.808z"/>
</g>
</svg>
