<?xml version="1.0" encoding="utf-8"?>
<!-- Generator: Adobe Illustrator 17.0.0, SVG Export Plug-In . SVG Version: 6.00 Build 0)  -->
<!DOCTYPE svg PUBLIC "-//W3C//DTD SVG 1.1//EN" "http://www.w3.org/Graphics/SVG/1.1/DTD/svg11.dtd">
<svg version="1.1" id="Layer_1" xmlns="http://www.w3.org/2000/svg" xmlns:xlink="http://www.w3.org/1999/xlink" x="0px" y="0px"
	 width="539.333px" height="96.667px" viewBox="0 0 539.333 96.667" enable-background="new 0 0 539.333 96.667"
	 xml:space="preserve">
<g>
	<g>
		<path fill="#326068" d="M92.66,29.899v0.405c1.012-0.81,2.112-1.431,3.3-1.863c1.188-0.432,2.456-0.647,3.806-0.647
			c0.594,0,1.231,0.041,1.913,0.121c0.681,0.081,1.309,0.227,1.883,0.436c0.573,0.209,1.049,0.496,1.427,0.86
			c0.377,0.364,0.566,0.837,0.566,1.417c0,0.297-0.057,0.574-0.172,0.83s-0.267,0.482-0.456,0.678
			c-0.189,0.196-0.412,0.348-0.668,0.455c-0.256,0.108-0.533,0.162-0.83,0.162c-0.256,0-0.553-0.074-0.891-0.223
			c-0.85-0.337-1.775-0.506-2.773-0.506c-0.985,0-1.91,0.186-2.773,0.557s-1.616,0.877-2.257,1.518
			c-0.641,0.641-1.147,1.394-1.518,2.257s-0.557,1.789-0.557,2.773v9.231c0,0.581-0.206,1.077-0.618,1.488
			c-0.412,0.412-0.908,0.618-1.488,0.618c-0.594,0-1.097-0.206-1.508-0.618c-0.412-0.411-0.617-0.907-0.617-1.488V29.899
			c0-0.58,0.206-1.076,0.617-1.488c0.412-0.412,0.915-0.617,1.508-0.617c0.58,0,1.076,0.206,1.488,0.617
			C92.453,28.824,92.66,29.319,92.66,29.899z"/>
		<path fill="#326068" d="M130.617,39.131c0,3.158-1.107,5.83-3.32,8.017c-2.241,2.213-4.913,3.32-8.017,3.32
			c-3.131,0-5.803-1.106-8.017-3.32s-3.32-4.886-3.32-8.017s1.106-5.803,3.32-8.017s4.885-3.32,8.017-3.32
			c3.104,0,5.776,1.106,8.017,3.32c1.106,1.107,1.933,2.328,2.48,3.664C130.323,36.114,130.603,37.565,130.617,39.131z
			 M119.28,32.025c-0.999,0-1.93,0.189-2.793,0.566c-0.864,0.378-1.613,0.888-2.247,1.529c-0.635,0.641-1.137,1.394-1.508,2.257
			c-0.372,0.864-0.557,1.782-0.557,2.753s0.185,1.89,0.557,2.753c0.371,0.864,0.874,1.617,1.508,2.257
			c0.634,0.641,1.383,1.151,2.247,1.528c0.863,0.378,1.794,0.567,2.793,0.567c0.985,0,1.91-0.189,2.773-0.567
			c0.863-0.377,1.616-0.891,2.257-1.539c0.641-0.647,1.147-1.4,1.518-2.257s0.557-1.771,0.557-2.743s-0.186-1.886-0.557-2.743
			c-0.371-0.857-0.877-1.609-1.518-2.257c-0.642-0.647-1.394-1.16-2.257-1.539C121.19,32.214,120.265,32.025,119.28,32.025z"/>
		<path fill="#326068" d="M138.087,30.305c2.011-1.673,4.379-2.51,7.105-2.51c3.104,0,5.776,1.106,8.017,3.32
			c1.106,1.093,1.937,2.311,2.49,3.654c0.553,1.343,0.83,2.797,0.83,4.363c0,3.158-1.107,5.83-3.32,8.017
			c-2.241,2.213-4.913,3.32-8.017,3.32c-3.131,0-5.803-1.106-8.017-3.32s-3.32-4.886-3.32-8.017V20.182
			c0-0.607,0.199-1.11,0.597-1.508c0.398-0.398,0.901-0.597,1.508-0.597c0.593,0,1.096,0.199,1.508,0.597
			c0.412,0.398,0.618,0.901,0.618,1.508V30.305z M145.192,46.236c0.985,0,1.91-0.189,2.773-0.567
			c0.863-0.377,1.616-0.891,2.257-1.539c0.641-0.647,1.147-1.4,1.518-2.257s0.557-1.771,0.557-2.743s-0.186-1.886-0.557-2.743
			c-0.371-0.857-0.877-1.609-1.518-2.257c-0.642-0.647-1.394-1.16-2.257-1.539c-0.864-0.377-1.789-0.566-2.773-0.566
			c-0.999,0-1.93,0.189-2.793,0.566c-0.864,0.378-1.613,0.888-2.247,1.529c-0.635,0.641-1.137,1.394-1.508,2.257
			c-0.372,0.864-0.557,1.782-0.557,2.753s0.185,1.89,0.557,2.753c0.371,0.864,0.874,1.617,1.508,2.257
			c0.634,0.641,1.383,1.151,2.247,1.528C143.262,46.047,144.193,46.236,145.192,46.236z"/>
		<path fill="#326068" d="M182.441,39.131c0,3.158-1.107,5.83-3.32,8.017c-2.241,2.213-4.913,3.32-8.017,3.32
			c-3.131,0-5.803-1.106-8.017-3.32s-3.32-4.886-3.32-8.017s1.106-5.803,3.32-8.017s4.885-3.32,8.017-3.32
			c3.104,0,5.776,1.106,8.017,3.32c1.106,1.107,1.933,2.328,2.48,3.664C182.147,36.114,182.427,37.565,182.441,39.131z
			 M171.104,32.025c-0.999,0-1.93,0.189-2.793,0.566c-0.864,0.378-1.613,0.888-2.247,1.529c-0.635,0.641-1.137,1.394-1.508,2.257
			c-0.372,0.864-0.557,1.782-0.557,2.753s0.185,1.89,0.557,2.753c0.371,0.864,0.874,1.617,1.508,2.257
			c0.634,0.641,1.383,1.151,2.247,1.528c0.863,0.378,1.794,0.567,2.793,0.567c0.985,0,1.91-0.189,2.773-0.567
			c0.863-0.377,1.616-0.891,2.257-1.539c0.641-0.647,1.147-1.4,1.518-2.257s0.557-1.771,0.557-2.743s-0.186-1.886-0.557-2.743
			c-0.371-0.857-0.877-1.609-1.518-2.257c-0.642-0.647-1.394-1.16-2.257-1.539C173.014,32.214,172.089,32.025,171.104,32.025z"/>
		<path fill="#326068" d="M187.664,27.794h0.951v-7.612c0-0.58,0.206-1.076,0.618-1.488c0.412-0.412,0.914-0.618,1.508-0.618
			c0.58,0,1.076,0.206,1.488,0.618c0.412,0.412,0.617,0.908,0.617,1.488v7.612h2.531c0.58,0,1.073,0.206,1.478,0.617
			c0.405,0.412,0.607,0.908,0.607,1.488c0,0.594-0.203,1.097-0.607,1.508c-0.405,0.412-0.897,0.618-1.478,0.618h-2.531v10.183
			c0,2.686,1.35,4.028,4.049,4.028c0.58,0,1.073,0.206,1.478,0.618s0.607,0.908,0.607,1.488c0,0.594-0.203,1.097-0.607,1.508
			c-0.405,0.412-0.898,0.618-1.478,0.618c-5.52,0-8.28-2.753-8.28-8.259V32.025h-0.951c-0.567,0-1.056-0.206-1.468-0.618
			c-0.412-0.412-0.618-0.914-0.618-1.508c0-0.58,0.206-1.076,0.618-1.488C186.608,28,187.097,27.794,187.664,27.794z"/>
		<path fill="#326068" d="M207.604,23.765c0,0.688-0.243,1.275-0.729,1.761s-1.073,0.729-1.761,0.729
			c-0.688,0-1.275-0.243-1.761-0.729s-0.729-1.073-0.729-1.761c0-0.688,0.243-1.275,0.729-1.761s1.073-0.729,1.761-0.729
			c0.688,0,1.275,0.243,1.761,0.729S207.604,23.077,207.604,23.765z M203.008,48.342V29.92c0-0.594,0.206-1.096,0.618-1.508
			c0.412-0.412,0.908-0.617,1.488-0.617s1.076,0.206,1.488,0.617c0.412,0.412,0.625,0.915,0.638,1.508v18.422
			c-0.013,0.594-0.226,1.097-0.638,1.508c-0.412,0.412-0.908,0.618-1.488,0.618s-1.076-0.206-1.488-0.618
			C203.214,49.438,203.008,48.935,203.008,48.342z"/>
		<path fill="#326068" d="M228.839,44.05c0.607,0,1.11,0.2,1.508,0.597c0.398,0.398,0.597,0.901,0.597,1.508
			c0,0.594-0.223,1.113-0.668,1.559c-2.092,1.835-4.555,2.753-7.389,2.753c-3.131,0-5.803-1.106-8.017-3.32s-3.32-4.886-3.32-8.017
			s1.106-5.803,3.32-8.017s4.885-3.32,8.017-3.32c2.848,0,5.311,0.918,7.389,2.753c0.486,0.432,0.729,0.965,0.729,1.599
			c0,0.607-0.199,1.114-0.597,1.519s-0.901,0.607-1.508,0.607c-0.513,0-0.972-0.162-1.376-0.486
			c-0.688-0.581-1.41-1.019-2.166-1.316s-1.579-0.445-2.47-0.445c-0.985,0-1.91,0.186-2.773,0.557s-1.62,0.877-2.267,1.518
			c-0.648,0.641-1.158,1.394-1.529,2.257s-0.557,1.789-0.557,2.773c0,0.985,0.186,1.91,0.557,2.773s0.881,1.616,1.529,2.257
			c0.647,0.642,1.403,1.147,2.267,1.519s1.788,0.557,2.773,0.557c0.891,0,1.714-0.145,2.47-0.435s1.471-0.726,2.146-1.306
			C227.881,44.212,228.326,44.063,228.839,44.05z"/>
		<path fill="#326068" d="M238.394,39.677c-1.269-0.486-2.159-0.985-2.672-1.498h0.02c-1.026-1.039-1.539-2.26-1.539-3.664
			c0-1.025,0.273-1.954,0.82-2.784c0.547-0.83,1.258-1.535,2.136-2.115c0.877-0.58,1.866-1.029,2.966-1.346
			c1.1-0.317,2.203-0.476,3.31-0.476c3.374,0,6.269,1.356,8.685,4.069c0.283,0.351,0.425,0.776,0.425,1.275
			c0,0.607-0.199,1.11-0.598,1.508c-0.397,0.398-0.9,0.597-1.507,0.597c-0.432,0-0.8-0.122-1.104-0.365
			c-0.304-0.243-0.597-0.506-0.88-0.79c-1.377-1.376-3.05-2.064-5.021-2.064c-1.943,0-3.496,0.594-4.656,1.781
			c-0.216,0.216-0.324,0.513-0.324,0.891c0,0.378,0.175,0.635,0.526,0.77l9.474,3.117c1.322,0.513,2.213,1.012,2.672,1.498h-0.02
			c1.025,1.04,1.539,2.261,1.539,3.665c0,1.039-0.273,1.97-0.82,2.793c-0.547,0.823-1.259,1.528-2.136,2.115
			c-0.877,0.587-1.863,1.036-2.956,1.346c-1.093,0.311-2.193,0.466-3.3,0.466c-3.401,0-6.296-1.343-8.685-4.028
			c-0.297-0.392-0.445-0.83-0.445-1.316c0-0.607,0.199-1.11,0.597-1.508c0.398-0.398,0.901-0.597,1.508-0.597
			c0.446,0,0.823,0.131,1.134,0.395s0.594,0.517,0.85,0.759c1.377,1.376,3.057,2.065,5.041,2.065c1.93,0,3.482-0.607,4.656-1.822
			c0.203-0.229,0.304-0.506,0.304-0.83c0-0.378-0.182-0.641-0.546-0.79L238.394,39.677z"/>
	</g>
	<g>
		<path fill="#326068" d="M256.504,31.273c-0.055-0.166-0.111-0.333-0.111-0.499c0-0.582,0.527-1.109,1.137-1.109
			c0.555,0,0.971,0.416,1.137,0.915L264.02,46l5.075-15.475c0.166-0.499,0.499-0.86,1.082-0.86h0.139
			c0.555,0,0.915,0.361,1.082,0.86L276.472,46l5.38-15.475c0.166-0.499,0.527-0.86,1.054-0.86c0.582,0,1.109,0.527,1.109,1.082
			c0,0.166-0.083,0.361-0.139,0.527l-6.212,17.25c-0.194,0.555-0.582,0.943-1.137,0.943h-0.166c-0.555,0-0.943-0.388-1.137-0.943
			l-5.048-14.921l-5.02,14.921c-0.194,0.555-0.582,0.943-1.137,0.943h-0.166c-0.555,0-0.943-0.361-1.137-0.943L256.504,31.273z"/>
		<path fill="#326068" d="M286.759,39.566V39.51c0-5.353,4.021-10.04,9.929-10.04s9.873,4.632,9.873,9.984v0.055
			c0,5.353-4.021,10.04-9.929,10.04S286.759,44.918,286.759,39.566z M304.286,39.566V39.51c0-4.41-3.217-8.015-7.654-8.015
			s-7.599,3.55-7.599,7.96v0.055c0,4.41,3.217,8.015,7.654,8.015S304.286,43.975,304.286,39.566z"/>
		<path fill="#326068" d="M311.464,30.913c0-0.61,0.499-1.109,1.082-1.109h7.266c2.385,0,4.299,0.721,5.519,1.941
			c0.943,0.943,1.498,2.302,1.498,3.827v0.055c0,3.189-2.163,5.048-5.186,5.63l4.826,6.212c0.222,0.25,0.361,0.499,0.361,0.804
			c0,0.582-0.555,1.082-1.109,1.082c-0.444,0-0.777-0.25-1.026-0.582l-5.464-7.1h-5.574v6.573c0,0.61-0.499,1.109-1.109,1.109
			c-0.582,0-1.082-0.499-1.082-1.109V30.913z M319.618,39.704c2.912,0,4.992-1.498,4.992-3.994v-0.055
			c0-2.385-1.83-3.827-4.964-3.827h-5.99v7.876H319.618z"/>
		<path fill="#326068" d="M331.786,30.774c0-0.61,0.499-1.109,1.082-1.109c0.61,0,1.109,0.499,1.109,1.109v10.622l11.066-11.343
			c0.25-0.222,0.499-0.388,0.86-0.388c0.582,0,1.054,0.527,1.054,1.082c0,0.305-0.139,0.555-0.361,0.777l-6.878,6.822l7.377,9.097
			c0.194,0.25,0.305,0.471,0.305,0.804c0,0.582-0.499,1.109-1.109,1.109c-0.416,0-0.693-0.222-0.887-0.499l-7.238-9.013
			l-4.188,4.188v4.215c0,0.61-0.499,1.109-1.109,1.109c-0.582,0-1.082-0.499-1.082-1.109V30.774z"/>
		<path fill="#326068" d="M350.916,46.887c-0.25-0.166-0.416-0.471-0.416-0.832c0-0.61,0.471-1.082,1.054-1.082
			c0.277,0,0.527,0.111,0.666,0.25c1.83,1.553,3.661,2.302,6.129,2.302c2.607,0,4.326-1.387,4.326-3.3V44.17
			c0-1.803-0.971-2.829-5.048-3.689c-4.465-0.971-6.517-2.413-6.517-5.602v-0.055c0-3.051,2.69-5.297,6.379-5.297
			c2.551,0,4.41,0.638,6.185,1.914c0.222,0.166,0.471,0.471,0.471,0.887c0,0.582-0.471,1.054-1.054,1.054
			c-0.25,0-0.444-0.055-0.638-0.194c-1.636-1.193-3.217-1.692-5.02-1.692c-2.524,0-4.132,1.387-4.132,3.134v0.055
			c0,1.83,0.998,2.857,5.269,3.772c4.326,0.943,6.323,2.524,6.323,5.491v0.055c0,3.328-2.773,5.491-6.628,5.491
			C355.437,49.494,353.08,48.607,350.916,46.887z"/>
		<path fill="#326068" d="M369.63,30.774c0-0.61,0.499-1.109,1.082-1.109c0.61,0,1.109,0.499,1.109,1.109v7.654h11.204v-7.654
			c0-0.61,0.499-1.109,1.109-1.109c0.582,0,1.082,0.499,1.082,1.109v17.472c0,0.61-0.499,1.109-1.082,1.109
			c-0.61,0-1.109-0.499-1.109-1.109v-7.765h-11.204v7.765c0,0.61-0.499,1.109-1.109,1.109c-0.582,0-1.082-0.499-1.082-1.109V30.774z
			"/>
		<path fill="#326068" d="M390.119,39.566V39.51c0-5.353,4.021-10.04,9.929-10.04c5.907,0,9.873,4.632,9.873,9.984v0.055
			c0,5.353-4.021,10.04-9.929,10.04S390.119,44.918,390.119,39.566z M407.646,39.566V39.51c0-4.41-3.217-8.015-7.654-8.015
			s-7.599,3.55-7.599,7.96v0.055c0,4.41,3.217,8.015,7.654,8.015C404.485,47.525,407.646,43.975,407.646,39.566z"/>
		<path fill="#326068" d="M414.824,30.913c0-0.61,0.499-1.109,1.082-1.109h6.185c4.382,0,7.266,2.33,7.266,6.157v0.055
			c0,4.188-3.494,6.351-7.627,6.351h-4.715v5.88c0,0.61-0.499,1.109-1.109,1.109c-0.582,0-1.082-0.499-1.082-1.109V30.913z
			 M421.813,40.37c3.217,0,5.325-1.719,5.325-4.271v-0.055c0-2.773-2.08-4.215-5.214-4.215h-4.909v8.542H421.813z"/>
		<path fill="#326068" d="M432.927,46.887c-0.25-0.166-0.416-0.471-0.416-0.832c0-0.61,0.471-1.082,1.054-1.082
			c0.277,0,0.527,0.111,0.666,0.25c1.83,1.553,3.661,2.302,6.129,2.302c2.607,0,4.326-1.387,4.326-3.3V44.17
			c0-1.803-0.971-2.829-5.047-3.689c-4.465-0.971-6.517-2.413-6.517-5.602v-0.055c0-3.051,2.69-5.297,6.379-5.297
			c2.551,0,4.41,0.638,6.185,1.914c0.222,0.166,0.471,0.471,0.471,0.887c0,0.582-0.471,1.054-1.054,1.054
			c-0.25,0-0.444-0.055-0.638-0.194c-1.636-1.193-3.217-1.692-5.02-1.692c-2.524,0-4.132,1.387-4.132,3.134v0.055
			c0,1.83,0.998,2.857,5.269,3.772c4.326,0.943,6.323,2.524,6.323,5.491v0.055c0,3.328-2.773,5.491-6.628,5.491
			C437.448,49.494,435.09,48.607,432.927,46.887z"/>
	</g>
</g>
<g>
	<g>
		<path fill="#FC72B9" d="M514.823,84.208c0,0,3.916-24.701,0.7-28.154c-3.392-3.637-28.045-6.567-32.126-4.405
			c-4.08,2.162-6.415,29.239-6.415,29.239L514.823,84.208z"/>
		<polygon fill="#FC72B9" stroke="#FFFFFF" stroke-width="1.1745" stroke-miterlimit="10" points="503.804,47.9 502.126,55.388 
			497.266,54.811 497.778,47.183 		"/>
		<path fill="#FC72B9" d="M480.388,38.009c-0.777,7.097,8.397,9.8,20.1,11.082c11.703,1.285,21.504,0.657,22.281-6.438
			c0.777-7.095-8.39-13.229-20.094-14.509C490.972,26.861,481.164,30.914,480.388,38.009z"/>
		
			<ellipse transform="matrix(-0.993 -0.118 0.118 -0.993 1051.0377 148.624)" fill="#FC72B9" cx="529.919" cy="43.195" rx="4.601" ry="5.368"/>
		
			<ellipse transform="matrix(-0.993 -0.118 0.118 -0.993 937.8369 127.7019)" fill="#FC72B9" cx="472.699" cy="36.085" rx="4.601" ry="5.368"/>
		<path fill="#FC72B9" d="M514.519,32.533c0,0,12.301-24.653,5.987-26.529c-8.485-2.519-12.67,23.471-12.67,23.471L514.519,32.533z"
			/>
		<path fill="#FC72B9" d="M497.404,29.446c0,0,6.645-24.863-0.803-27.359c-8.381-2.807-6.585,27.331-6.585,27.331L497.404,29.446z"
			/>
		<path fill="#FC72B9" d="M519.63,58.952c0,0,13.719-4.78,14.986,1.781c0.882,4.575-15.036,6.019-15.036,6.019L519.63,58.952z"/>
		<path fill="#FC72B9" d="M479.361,52.796c0,0-12.338-6.616-15.849-1.613c-2.483,3.54,13.651,10.295,13.651,10.295L479.361,52.796z"
			/>
	</g>
	<g>
		<circle fill="#FFFFFF" cx="513.778" cy="41.277" r="4.6"/>
		<circle fill="#FFFFFF" cx="488.844" cy="38.623" r="4.754"/>
		
			<polyline fill="none" stroke="#FFFFFF" stroke-width="1.1745" stroke-miterlimit="10" stroke-dasharray="2.3491,2.3491,2.3491,2.3491,2.3491,2.3491" points="
			503.855,55.769 513.836,57.034 513.672,81.8 479.556,78.441 484.625,53.332 495.308,54.687 		"/>
		
			<path fill="none" stroke="#FFFFFF" stroke-width="1.1745" stroke-miterlimit="10" stroke-dasharray="2.3491,2.3491,2.3491,2.3491,2.3491,2.3491" d="
			M495.027,41.827c0,0,1.999-9.028-4.087-10.445c-6.336-1.478-9.091,6.33-9.091,6.33"/>
		<polygon fill="#FFFFFF" points="503.428,39.351 498.86,38.808 500.884,43.219 		"/>
		
			<path fill="none" stroke="#FFFFFF" stroke-width="1.1745" stroke-miterlimit="10" stroke-dasharray="2.3491,2.3491,2.3491,2.3491,2.3491,2.3491" d="
			M521.098,40.756c0,0-1.516-7.138-6.805-7.062c-6.961,0.099-7.9,9.949-7.9,9.949"/>
		
			<ellipse transform="matrix(-0.993 -0.118 0.118 -0.993 969.6678 177.4225)" fill="#FFFFFF" cx="490.087" cy="60.003" rx="1.61" ry="1.496"/>
		
			<ellipse transform="matrix(-0.993 -0.118 0.118 -0.993 980.9689 179.449)" fill="#FFFFFF" cx="495.797" cy="60.682" rx="1.61" ry="1.496"/>
		
			<ellipse transform="matrix(-0.993 -0.118 0.118 -0.993 992.7215 181.5564)" fill="#FFFFFF" cx="501.736" cy="61.388" rx="1.61" ry="1.496"/>
		
			<ellipse transform="matrix(-0.993 -0.118 0.118 -0.993 1005.3788 183.826)" fill="#FFFFFF" cx="508.132" cy="62.148" rx="1.61" ry="1.496"/>
	</g>
	<g>
		<g>
			<path fill="#181818" d="M509.604,93.285c-0.25,2.103-2.157,3.604-4.259,3.354c-2.103-0.25-3.605-2.156-3.355-4.259
				c0.048-0.401,0.172-0.772,0.329-1.12l7.227,0.859C509.618,92.495,509.652,92.884,509.604,93.285z"/>
			<path fill="#181818" d="M487.211,90.703c-0.26,2.187-2.243,3.749-4.43,3.489c-2.187-0.26-3.749-2.243-3.489-4.43
				c0.048-0.401,0.17-0.768,0.323-1.121l7.543,0.896C487.226,89.917,487.259,90.302,487.211,90.703z"/>
		</g>
		<path fill="#181818" d="M506.498,45.353c0,0-6.157,2.433-5.816-2.389c-1.967,4.862-6.975,0.869-6.975,0.869
			s0.748,4.104,6.875,4.523C506.709,48.776,506.498,45.353,506.498,45.353z"/>
		
			<line fill="none" stroke="#181818" stroke-width="1.1745" stroke-miterlimit="10" x1="528.19" y1="43.451" x2="519.308" y2="42.165"/>
		
			<line fill="none" stroke="#181818" stroke-width="1.1745" stroke-miterlimit="10" x1="481.256" y1="38.8" x2="474.284" y2="37.045"/>
		<polygon fill="#181818" stroke="#FFFFFF" stroke-width="1.1745" stroke-miterlimit="10" points="495.949,26.071 497.08,8.265 
			493.318,8.409 492.576,26.259 		"/>
		<polygon fill="#181818" stroke="#FFFFFF" stroke-width="1.1745" stroke-miterlimit="10" points="513.283,29.508 519.491,12.109 
			516.496,10.769 510.048,28.532 		"/>
		<path fill="none" stroke="#181818" stroke-width="1.1745" stroke-miterlimit="10" d="M501.212,26.81l-2.015,11.113l4.111,0.489
			l0.591-10.817c0,0,19.709,3.733,19.738,13.233c0.029,9.5-10.038,10.473-23.346,8.388c-13.307-2.09-22.562-6.387-19.998-14.004
			C483.516,25.635,501.212,26.81,501.212,26.81z"/>
		<path fill="none" stroke="#181818" stroke-width="1.1745" stroke-miterlimit="10" d="M475.696,81.688l40.282,4.094
			c0,0,3.71-23.42,0.707-29.336c-2-3.941-12.558-5.431-12.558-5.431l-0.586,6.882l-8.479-0.777l1.271-6.798
			c0,0-12.024-2.124-14.77,1.488C477.741,56.838,475.696,81.688,475.696,81.688z"/>
		
			<line fill="none" stroke="#181818" stroke-width="3.5236" stroke-miterlimit="10" x1="484.403" y1="82.491" x2="484.387" y2="84.576"/>
		
			<line fill="none" stroke="#181818" stroke-width="3.5236" stroke-miterlimit="10" x1="506.559" y1="85.125" x2="506.141" y2="86.697"/>
		<circle fill="#181818" cx="489.414" cy="38.381" r="1.687"/>
		<circle fill="#181818" cx="512.228" cy="41.323" r="2.147"/>
		<path fill="none" stroke="#181818" stroke-width="1.1745" stroke-miterlimit="10" d="M510.933,91.205c0,0-1.796-4.383-4.792-4.508
			c-2.997-0.123-5.03,3.341-5.03,3.341L510.933,91.205z"/>
		<path fill="none" stroke="#181818" stroke-width="1.1745" stroke-miterlimit="10" d="M488.32,88.517c0,0-0.022-3.708-3.933-3.942
			c-3.91-0.234-5.916,3.002-5.916,3.002L488.32,88.517z"/>
		<circle fill="none" stroke="#181818" stroke-width="1.1745" stroke-miterlimit="10" cx="530.272" cy="43.468" r="2.53"/>
		<circle fill="none" stroke="#181818" stroke-width="1.1745" stroke-miterlimit="10" cx="472.255" cy="36.573" r="2.53"/>
		
			<ellipse transform="matrix(-0.993 -0.118 0.118 -0.993 1048.0624 182.2902)" fill="#181818" cx="529.428" cy="60.116" rx="2.467" ry="2.354"/>
		
			<ellipse transform="matrix(-0.993 -0.118 0.118 -0.993 929.7916 161.5989)" fill="#181818" cx="469.68" cy="53.272" rx="2.461" ry="2.287"/>
		<polygon fill="none" stroke="#181818" stroke-width="1.1745" stroke-miterlimit="10" points="510.923,65.954 485.286,63.371 
			482.852,76.054 509.859,78.799 		"/>
		<polygon fill="#181818" points="507.91,67.913 507.106,76.619 505.252,76.632 505.626,67.641 		"/>
		<polygon fill="#181818" points="504.2,67.703 503.195,76.154 500.226,75.801 500.517,67.496 		"/>
		<polygon fill="#181818" points="499.401,66.902 498.37,75.581 495.401,75.228 496.405,66.777 		"/>
		<polygon fill="#181818" points="490.55,65.85 489.573,74.073 486.321,74.149 487.809,65.524 		"/>
		<polygon fill="#181818" points="494.576,66.328 492.776,65.881 491.26,74.736 493.088,74.953 		"/>
		<path fill="none" stroke="#181818" stroke-width="1.1745" stroke-miterlimit="10" d="M475.782,77.066
			c-12.16-0.983-3.711-9.707-14.074-10.765"/>
		<path fill="none" stroke="#181818" stroke-width="1.1745" stroke-miterlimit="10" d="M455.648,69.113c0,0,5.891,0.892,6.438-2.005
			c0.908-4.82-5.732-3.932-5.732-3.932L455.648,69.113z"/>
		
			<line fill="none" stroke="#181818" stroke-width="1.1745" stroke-miterlimit="10" x1="455.953" y1="64.593" x2="453.011" y2="64.013"/>
		
			<line fill="none" stroke="#181818" stroke-width="1.1745" stroke-miterlimit="10" x1="455.627" y1="67.336" x2="452.686" y2="66.753"/>
	</g>
</g>
<g>
	<g>
		<polygon fill="#01A0AA" points="17.608,41.38 61.747,35.705 62.781,70.713 24.917,76.293 		"/>
		<polygon fill="#01A0AA" points="18.517,39.437 17.93,23.049 53.147,18.667 56.325,33.308 		"/>
		<path fill="#01A0AA" d="M26.285,96.667c0,0,1.694-12.322,9.534-15.033c12.669-4.381,14.238,12.573,14.238,12.573L26.285,96.667z"
			/>
		<path fill="#01A0AA" d="M53.349,93.867c0,0-2.044-12.589,7.617-13.91c11.116-1.52,12.132,11.867,12.132,11.867L53.349,93.867z"/>
		<circle fill="#01A0AA" cx="68.355" cy="23.654" r="5.791"/>
		<circle fill="#01A0AA" cx="11.587" cy="71.157" r="6.939"/>
	</g>
	<g>
		<polygon fill="#FFFFFF" points="35.239,51.014 48.587,49.633 50.252,60.366 36.96,62.295 		"/>
		<polygon fill="#FFFFFF" points="21.417,26.385 35.012,27.381 35.416,33.069 22.414,34.229 		"/>
		<polygon fill="#FFFFFF" points="37.622,25.817 50.158,21.933 50.574,31.315 39.11,33.056 		"/>
		<polygon fill="none" stroke="#FFFFFF" stroke-width="1.036" stroke-miterlimit="10" points="31.569,47.698 34.186,64.06 
			54.118,61.998 53.31,45.264 		"/>
		<g>
			<g>
				<g>
					<polyline fill="none" stroke="#FFFFFF" stroke-width="1.036" stroke-miterlimit="10" points="56.766,40.492 57.794,40.364 
						57.894,41.396 					"/>
					
						<line fill="none" stroke="#FFFFFF" stroke-width="1.036" stroke-miterlimit="10" stroke-dasharray="2.4355,2.4355,2.4355,2.4355" x1="58.129" y1="43.82" x2="58.952" y2="52.304"/>
					
						<line fill="none" stroke="#FFFFFF" stroke-width="1.036" stroke-miterlimit="10" stroke-dasharray="2.4355,2.4355,2.4355,2.4355,2.4355,2.4355" x1="59.07" y1="53.516" x2="60.363" y2="66.849"/>
					<polyline fill="none" stroke="#FFFFFF" stroke-width="1.036" stroke-miterlimit="10" points="60.48,68.061 60.58,69.092 
						59.554,69.232 					"/>
					
						<line fill="none" stroke="#FFFFFF" stroke-width="1.036" stroke-miterlimit="10" stroke-dasharray="1.8581,1.8581,1.8581,1.8581" x1="57.713" y1="69.484" x2="51.269" y2="70.365"/>
					
						<line fill="none" stroke="#FFFFFF" stroke-width="1.036" stroke-miterlimit="10" stroke-dasharray="1.8581,1.8581,1.8581,1.8581,1.8581,1.8581" x1="50.349" y1="70.49" x2="29.177" y2="73.385"/>
					<polyline fill="none" stroke="#FFFFFF" stroke-width="1.036" stroke-miterlimit="10" points="28.257,73.51 27.23,73.651 
						27.046,72.631 					"/>
					
						<line fill="none" stroke="#FFFFFF" stroke-width="1.036" stroke-miterlimit="10" stroke-dasharray="2.4764,2.4764,2.4764,2.4764" x1="26.607" y1="70.194" x2="25.069" y2="61.664"/>
					
						<line fill="none" stroke="#FFFFFF" stroke-width="1.036" stroke-miterlimit="10" stroke-dasharray="2.4764,2.4764,2.4764,2.4764,2.4764,2.4764" x1="24.849" y1="60.446" x2="22.432" y2="47.041"/>
					<polyline fill="none" stroke="#FFFFFF" stroke-width="1.036" stroke-miterlimit="10" points="22.213,45.823 22.029,44.803 
						23.057,44.675 					"/>
					
						<line fill="none" stroke="#FFFFFF" stroke-width="1.036" stroke-miterlimit="10" stroke-dasharray="1.9981,1.9981,1.9981,1.9981" x1="25.04" y1="44.429" x2="31.98" y2="43.568"/>
					
						<line fill="none" stroke="#FFFFFF" stroke-width="1.036" stroke-miterlimit="10" stroke-dasharray="1.9981,1.9981,1.9981,1.9981,1.9981,1.9981" x1="32.971" y1="43.445" x2="55.774" y2="40.615"/>
				</g>
			</g>
		</g>
		
			<line fill="none" stroke="#FFFFFF" stroke-width="1.036" stroke-miterlimit="10" x1="27.83" y1="93.734" x2="48.859" y2="91.558"/>
		
			<line fill="none" stroke="#FFFFFF" stroke-width="1.036" stroke-miterlimit="10" x1="54.969" y1="91.666" x2="70.525" y2="88.393"/>
	</g>
	<g id="_x31__3_">
		<polygon fill="none" stroke="#000000" stroke-width="1.036" stroke-miterlimit="10" points="19.456,25.294 36.102,25.421 
			51.488,20.502 53.235,33.813 20.648,36.815 		"/>
		
			<line fill="none" stroke="#000000" stroke-width="1.036" stroke-miterlimit="10" x1="38.057" y1="35.382" x2="36.468" y2="25.382"/>
		<circle fill="none" stroke="#000000" stroke-width="1.036" stroke-miterlimit="10" cx="28.649" cy="31.089" r="5.056"/>
		<circle fill="none" stroke="#000000" stroke-width="1.036" stroke-miterlimit="10" cx="44.867" cy="26.177" r="5.699"/>
		<circle fill="none" stroke="#000000" stroke-width="1.036" stroke-miterlimit="10" cx="12.078" cy="69.212" r="5.239"/>
		<circle fill="none" stroke="#000000" stroke-width="1.036" stroke-miterlimit="10" cx="68.173" cy="23.674" r="3.401"/>
		<path fill="none" stroke="#000000" stroke-width="1.036" stroke-miterlimit="10" d="M29.904,95.922c0,0-1.721-11.281,6.671-12.333
			c10.033-1.259,12.019,10.77,12.019,10.77L29.904,95.922z"/>
		<path fill="none" stroke="#000000" stroke-width="1.036" stroke-miterlimit="10" d="M54.994,93.697c0,0-1.861-9.049,4.937-11.231
			c7.938-2.547,11.955,8.374,11.955,8.374L54.994,93.697z"/>
		<polygon fill="none" stroke="#000000" stroke-width="1.036" stroke-miterlimit="10" points="20.087,43.895 59.067,38.384 
			63.941,67.635 22.363,73.045 		"/>
		<path fill="none" stroke="#000000" stroke-width="1.036" stroke-miterlimit="10" d="M20.339,48.12c0,0-7.358-1.456-11.255,3.752
			C5.187,57.08,9.311,64.786,9.311,64.786"/>
		<path fill="none" stroke="#000000" stroke-width="1.036" stroke-miterlimit="10" d="M60.367,43.795c0,0,6.973-0.149,9.691-6.362
			c2.541-5.807-0.952-10.99-0.952-10.99"/>
		
			<line fill="none" stroke="#000000" stroke-width="1.036" stroke-miterlimit="10" x1="20.73" y1="12.594" x2="34.602" y2="25.205"/>
		<line fill="none" stroke="#000000" stroke-width="1.036" stroke-miterlimit="10" x1="48.36" y1="4.562" x2="37.729" y2="25.068"/>
		<polyline fill="none" stroke="#000000" stroke-width="1.036" stroke-miterlimit="10" points="32.59,68.292 35.85,85.512 
			40.22,84.875 40.744,66.709 		"/>
		<polyline fill="none" stroke="#000000" stroke-width="1.036" stroke-miterlimit="10" points="48.077,66.135 58.203,85.417 
			61.034,84.2 56.835,65.044 		"/>
		<polygon fill="none" stroke="#000000" stroke-width="1.036" stroke-miterlimit="10" points="33.845,50.05 50.63,47.943 
			50.706,59.394 36.115,61.273 		"/>
		
			<line fill="none" stroke="#000000" stroke-width="1.036" stroke-miterlimit="10" x1="29.684" y1="36.619" x2="30.472" y2="42.451"/>
		
			<line fill="none" stroke="#000000" stroke-width="1.036" stroke-miterlimit="10" x1="33.505" y1="36.039" x2="33.581" y2="42.13"/>
		
			<line fill="none" stroke="#000000" stroke-width="1.036" stroke-miterlimit="10" x1="36.412" y1="35.553" x2="37.364" y2="41.184"/>
		
			<line fill="none" stroke="#000000" stroke-width="1.036" stroke-miterlimit="10" x1="41.531" y1="35.023" x2="42.667" y2="40.636"/>
		
			<line fill="none" stroke="#000000" stroke-width="1.036" stroke-miterlimit="10" x1="45.958" y1="34.936" x2="46.488" y2="40.056"/>
		<ellipse transform="matrix(0.9947 -0.103 0.103 0.9947 -6.4119 3.3803)" cx="29.539" cy="63.802" rx="2.022" ry="2.114"/>
		<ellipse transform="matrix(0.9947 -0.1028 0.1028 0.9947 -5.3679 3.1167)" cx="27.565" cy="53.656" rx="1.387" ry="1.45"/>
		<ellipse transform="matrix(0.9947 -0.1029 0.1029 0.9947 -5.8396 3.2333)" cx="28.404" cy="58.19" rx="1.387" ry="1.451"/>
		<ellipse transform="matrix(0.9947 -0.103 0.103 0.9947 -1.1391 2.1362)" cx="20.124" cy="12.103" rx="2.022" ry="2.114"/>
		<ellipse transform="matrix(0.9947 -0.103 0.103 0.9947 -0.1506 5.032)" cx="48.67" cy="3.975" rx="2.022" ry="2.114"/>
		<ellipse transform="matrix(0.9947 -0.1029 0.1029 0.9947 -3.0067 3.194)" cx="29.444" cy="30.729" rx="2.606" ry="2.725"/>
		<ellipse transform="matrix(0.9947 -0.1028 0.1028 0.9947 -2.5051 4.6326)" cx="43.677" cy="26.612" rx="2.876" ry="3.005"/>
		<rect x="37.468" y="53.468" transform="matrix(0.9947 -0.1028 0.1028 0.9947 -5.3237 4.6875)" width="10.663" height="1.015"/>
		<rect x="37.666" y="55.387" transform="matrix(0.9947 -0.1029 0.1029 0.9947 -5.5225 4.7204)" width="10.663" height="1.015"/>
		<rect x="37.864" y="57.306" transform="matrix(0.9947 -0.1028 0.1028 0.9947 -5.7163 4.7486)" width="10.663" height="1.014"/>
		<rect x="37.269" y="51.55" transform="matrix(0.9947 -0.1029 0.1029 0.9947 -5.1321 4.6615)" width="10.663" height="1.015"/>
		<polyline fill="none" stroke="#000000" stroke-width="1.036" stroke-miterlimit="10" points="59.874,22.961 64.938,21.883 
			59.837,11.876 		"/>
		
			<line fill="none" stroke="#000000" stroke-width="1.036" stroke-miterlimit="10" x1="16.202" y1="79.597" x2="14.538" y2="74.225"/>
		
			<line fill="none" stroke="#000000" stroke-width="1.036" stroke-miterlimit="10" x1="12.331" y1="81.476" x2="11.795" y2="74.509"/>
		<line fill="none" stroke="#000000" stroke-width="1.036" stroke-miterlimit="10" x1="6.965" y1="79.629" x2="9.343" y2="74.023"/>
		
			<line fill="none" stroke="#000000" stroke-width="1.036" stroke-miterlimit="10" x1="15.421" y1="64.892" x2="18.138" y2="62.579"/>
	</g>
</g>
</svg>
