<?xml version="1.0" encoding="utf-8"?>
<!-- Generator: Adobe Illustrator 17.0.0, SVG Export Plug-In . SVG Version: 6.00 Build 0)  -->
<!DOCTYPE svg PUBLIC "-//W3C//DTD SVG 1.1//EN" "http://www.w3.org/Graphics/SVG/1.1/DTD/svg11.dtd">
<svg version="1.1" id="Layer_1" xmlns="http://www.w3.org/2000/svg" xmlns:xlink="http://www.w3.org/1999/xlink" x="0px" y="0px"
	 width="243px" height="301px" viewBox="0 0 243 301" enable-background="new 0 0 243 301" xml:space="preserve">
<g>
	<polygon fill="#01A0AA" points="107.741,380.314 70.398,211.424 210.661,164.976 264.935,332.144 	"/>
	<path fill="#01A0AA" d="M75.762,199.422c0,0-33.099-89.329,30.218-106.639c76.325-20.869,93.749,67.586,93.749,67.586
		L75.762,199.422z"/>
	<polygon fill="#01A0AA" points="138.647,431.346 127.313,398.019 164.149,387.19 182.846,415.907 	"/>
	<polygon fill="#01A0AA" points="215.302,405.878 212.841,374.833 254.002,361.262 268.112,391.817 	"/>
	<polyline fill="none" stroke="#01A0AA" stroke-width="8.9783" stroke-miterlimit="10" points="28.239,211.108 35.229,226.164 
		26.051,229.84 7.875,215.142 	"/>
	<polyline fill="none" stroke="#01A0AA" stroke-width="8.9783" stroke-miterlimit="10" points="38.109,365.107 44.365,342.74 
		51.919,340.519 58.436,355.708 	"/>
	<polyline fill="none" stroke="#01A0AA" stroke-width="8.9783" stroke-miterlimit="10" points="308.803,167.241 288.662,178.684 
		285.327,187.544 289.807,203.888 	"/>
	<polyline fill="none" stroke="#01A0AA" stroke-width="8.9783" stroke-miterlimit="10" points="343.909,239.522 319.841,243.175 
		317.102,251.312 324.773,265.188 	"/>
	
		<path fill="none" stroke="#01A0AA" stroke-width="8.9783" stroke-miterlimit="10" stroke-dasharray="8.9783,8.9783,8.9783,8.9783,8.9783,8.9783" d="
		M47.6,128.811c0,0,3.265-52.666,58.996-67.257c48.513-12.702,80.474,27.032,80.474,27.032"/>
</g>
<g>
	<path fill="#FFFFFF" d="M76.799,203.526l125.743-36.481c0,0,0.35,34.296-49.577,51.234
		C88.121,240.277,76.799,203.526,76.799,203.526z"/>
	<path fill="#FFFFFF" d="M112.99,120.7c0,0-39.424,3.768-33.037,30.73c5.949,25.099,42.861,7.925,42.861,7.925L112.99,120.7z"/>
	<path fill="#FFFFFF" d="M129.425,120.755c0,0,31.636-17.558,41.387,6.407c9.241,22.698-30.883,31.075-30.883,31.075
		L129.425,120.755z"/>
	<path fill="#FFFFFF" d="M212.605,292.199c0.943,3.207-1.02,6.604-4.38,7.592c-3.361,0.988-6.853-0.805-7.796-4.012
		c-0.942-3.203,1.025-6.6,4.386-7.589C208.175,287.202,211.664,288.996,212.605,292.199z"/>
	
		<ellipse transform="matrix(0.9594 -0.2821 0.2821 0.9594 -76.8118 65.2124)" fill="#FFFFFF" cx="188.102" cy="299.403" rx="6.348" ry="6.048"/>
	<path fill="#FFFFFF" d="M175.774,303.027c0.943,3.207-1.024,6.605-4.384,7.593c-3.361,0.988-6.849-0.806-7.792-4.013
		c-0.942-3.203,1.021-6.599,4.382-7.587C171.339,298.032,174.832,299.824,175.774,303.027z"/>
	<path fill="#FFFFFF" d="M157.356,308.442c0.943,3.207-1.02,6.604-4.385,7.593c-3.361,0.988-6.849-0.806-7.792-4.013
		c-0.942-3.203,1.021-6.599,4.382-7.587C152.926,303.445,156.414,305.239,157.356,308.442z"/>
	<path fill="#FFFFFF" d="M138.938,313.857c0.943,3.207-1.02,6.604-4.38,7.592c-3.365,0.989-6.853-0.805-7.796-4.012
		c-0.942-3.203,1.021-6.599,4.386-7.589C134.508,308.86,137.996,310.654,138.938,313.857z"/>
	
		<polygon fill="none" stroke="#FFFFFF" stroke-width="4.4892" stroke-miterlimit="10" stroke-dasharray="8.9783,8.9783,8.9783,8.9783,8.9783,8.9783" points="
		93.11,271.219 223.448,232.9 249.975,309.173 111.665,351.789 	"/>
	<polyline fill="none" stroke="#FFFFFF" stroke-width="4.4892" stroke-miterlimit="10" points="128.048,175.416 121.441,177.358 
		98.987,94.023 	"/>
	<polyline fill="none" stroke="#FFFFFF" stroke-width="4.4892" stroke-miterlimit="10" points="126.303,87.459 150.978,169.65 
		143.557,172.321 	"/>
</g>
<g>
	<polygon fill="none" stroke="#181818" stroke-width="4.4892" stroke-miterlimit="10" points="135.597,424.377 129.682,424.697 
		187.054,410.438 184.556,404.767 	"/>
	<polygon fill="none" stroke="#181818" stroke-width="4.4892" stroke-miterlimit="10" points="209.923,396.817 208.859,401.419 
		272.121,386.24 269.822,380.674 	"/>
	<path fill="none" stroke="#181818" stroke-width="4.4892" stroke-miterlimit="10" d="M164.773,102.939
		c0,0,41.549-23.132,56.83,12.928c12.961,30.578-24.872,40.066-24.872,40.066"/>
	<path fill="none" stroke="#181818" stroke-width="4.4892" stroke-miterlimit="10" d="M72.472,128.517
		c0,0-49.952-0.133-43.074,39.178c5.161,29.491,46.949,24.409,46.949,24.409"/>
	
		<line fill="none" stroke="#181818" stroke-width="13.4675" stroke-miterlimit="10" x1="186.519" y1="84.069" x2="222.74" y2="156.866"/>
	
		<line fill="none" stroke="#181818" stroke-width="13.4675" stroke-miterlimit="10" x1="45.619" y1="124.714" x2="51.437" y2="200.21"/>
	<polyline fill="none" stroke="#181818" stroke-width="13.4675" stroke-miterlimit="10" points="73.046,257.078 45.868,264.093 
		32.695,233.26 	"/>
	<polyline fill="none" stroke="#181818" stroke-width="13.4675" stroke-miterlimit="10" points="83.326,299.024 39.502,307.021 
		47.157,336.54 	"/>
	<polyline fill="none" stroke="#181818" stroke-width="13.4675" stroke-miterlimit="10" points="220.907,178.905 245.883,169.608 
		281.245,181.696 	"/>
	<polyline fill="none" stroke="#181818" stroke-width="13.4675" stroke-miterlimit="10" points="244.244,247.806 278.19,235.87 
		313.23,245.119 	"/>
	<polygon fill="none" stroke="#181818" stroke-width="4.4892" stroke-miterlimit="10" points="177.51,270.356 216.838,259.283 
		218.065,268.697 182.156,282.676 	"/>
	
		<line fill="none" stroke="#181818" stroke-width="13.4675" stroke-miterlimit="10" stroke-dasharray="8.9783,8.9783,8.9783,8.9783,8.9783,8.9783" x1="135.546" y1="419.061" x2="174.349" y2="406.186"/>
	
		<line fill="none" stroke="#181818" stroke-width="13.4675" stroke-miterlimit="10" stroke-dasharray="8.9783,8.9783,8.9783,8.9783,8.9783,8.9783" x1="260.067" y1="385.388" x2="219.268" y2="394.936"/>
	
		<line fill="none" stroke="#181818" stroke-width="4.4892" stroke-miterlimit="10" x1="88.468" y1="121.066" x2="110.873" y2="113.499"/>
	
		<line fill="none" stroke="#181818" stroke-width="4.4892" stroke-miterlimit="10" x1="128.176" y1="114.768" x2="156.983" y2="106.299"/>
	<path fill="none" stroke="#181818" stroke-width="4.4892" stroke-miterlimit="10" d="M223.77,223.52
		c0,0-26.643-92.365-45.29-119.141c-19.699-28.288-61.244-21.587-61.244-21.587l25.378,89.805l-14.302,3.716l-23.089-89.011
		c0,0-37.353,9.8-40.987,43.819C60.404,166.954,89.65,262.951,89.65,262.951L223.77,223.52z"/>
	<path fill="none" stroke="#181818" stroke-width="4.4892" stroke-miterlimit="10" d="M63.011,21.318
		c0,0,51.223-20.703,51.33,69.658"/>
</g>
<g>
	<path fill="#181818" d="M143.274,216.73c48.058-11.003,54.665-44.42,54.665-44.42L83.655,205.909
		C83.655,205.909,95.216,227.731,143.274,216.73z"/>
	<path fill="#181818" d="M116.192,143.17c1.797,6.113-1.946,12.594-8.368,14.482c-6.414,1.886-13.073-1.537-14.87-7.65
		c-1.797-6.114,1.948-12.6,8.362-14.486C107.739,133.628,114.395,137.057,116.192,143.17z"/>
	<path fill="#181818" d="M154.331,125.489c1.424,4.843-1.547,9.987-6.627,11.48c-5.085,1.495-10.367-1.222-11.791-6.066
		c-1.423-4.841,1.547-9.984,6.632-11.479C147.626,117.931,152.908,120.648,154.331,125.489z"/>
	
		<ellipse transform="matrix(0.9594 -0.2821 0.2821 0.9594 -3.3498 18.3123)" fill="#181818" cx="61.931" cy="20.791" rx="4.638" ry="4.417"/>
	<polygon fill="#181818" points="138.13,365.026 146.579,397.245 158.992,394.084 155.263,360.478 	"/>
	<polygon fill="#181818" points="217.599,342.151 231.185,370.907 244.276,366.569 235.621,335.388 	"/>
	<path fill="#181818" d="M149.121,418.607l26.595-10.755c0,0,4.138,19.314-7.532,23.232
		C156.507,435.008,149.121,418.607,149.121,418.607z"/>
	<path fill="#181818" d="M228.532,393.794l28.331-8.329c0,0,2.062,17.475-9.611,21.398
		C235.579,410.783,228.532,393.794,228.532,393.794z"/>
	<polygon fill="none" stroke="#181818" stroke-width="4.4892" stroke-miterlimit="10" points="101.823,395.091 63.522,204.322 
		213.028,159.066 278.675,340.488 	"/>
	<polygon fill="#181818" points="129.039,229.375 142.71,240.998 143.316,229.09 153.367,238.842 158.957,226.444 166.061,233.155 
		169.647,217.437 	"/>
</g>
<polygon fill="#FFFFFF" points="111.937,202.634 118.079,213.047 129.938,211.516 126.996,196.253 "/>
<polygon fill="#FFFFFF" points="129.351,195.561 135.212,212.573 151.72,207.066 148.111,189.554 "/>
<polygon fill="#FFFFFF" points="158.5,186.5 161.6,198.785 173.745,194.728 172.175,185.903 "/>
</svg>
