<?xml version="1.0" encoding="utf-8"?>
<!-- Generator: Adobe Illustrator 17.0.0, SVG Export Plug-In . SVG Version: 6.00 Build 0)  -->
<!DOCTYPE svg PUBLIC "-//W3C//DTD SVG 1.1//EN" "http://www.w3.org/Graphics/SVG/1.1/DTD/svg11.dtd">
<svg version="1.1" id="Layer_1" xmlns="http://www.w3.org/2000/svg" xmlns:xlink="http://www.w3.org/1999/xlink" x="0px" y="0px"
	 width="243px" height="301.333px" viewBox="0 0 243 301.333" enable-background="new 0 0 243 301.333" xml:space="preserve">
<path fill="#181818" d="M26.687,124.578c0,0,4.053-68.475,45.503-61.99c28.632,4.48,90.396,9.231,104.254,34.547
	c6.774,12.376-13.258,60.79-13.258,60.79L26.687,124.578z"/>
<g>
	<path fill="#FECD02" d="M-60.21,324.471c0,0,31.556-194.231,71.543-200.215s155.247,14.632,175.672,44.805
		s-28.803,205.903-28.803,205.903L-60.21,324.471z"/>
	<path fill="#FECD02" d="M219.758,287.01l-30.025-8.195l8.451-110.419c0,0,32.245-1.2,36.592,13.053
		C239.123,195.702,219.758,287.01,219.758,287.01z"/>
	<path fill="#FECD02" d="M-46.294,214.242l-28.488-10.036c0,0,21.396-95.237,36.996-95.961s36.288,9.675,36.288,9.675
		L-46.294,214.242z"/>
	
		<ellipse transform="matrix(0.9732 0.2299 -0.2299 0.9732 24.9544 -16.1466)" fill="#FECD02" cx="81.769" cy="99.016" rx="19.843" ry="21.452"/>
	
		<ellipse transform="matrix(0.9732 0.2299 -0.2299 0.9732 28.3816 -27.0514)" fill="#FECD02" cx="130.279" cy="108.271" rx="23.061" ry="24.669"/>
	<path fill="#FECD02" d="M99.083,70.043l26.096,6.165c0,0,15.329-41.565,11.343-48.017c-3.986-6.452-14.482-13.34-22.225-8.557
		S99.083,70.043,99.083,70.043z"/>
</g>
<path fill="none" stroke="#181818" stroke-width="8.5807" stroke-miterlimit="10" stroke-dasharray="8.5807,8.5807,8.5807,8.5807,8.5807,8.5807" d="
	M-34.78,319.458c0,0-16.505,51.206-11.721,58.949c4.784,7.743,34.562,16.982,37.883,12.255c3.321-4.726,15.346-60.297,15.346-60.297
	"/>
<path fill="none" stroke="#181818" stroke-width="8.5807" stroke-miterlimit="10" stroke-dasharray="8.5807,8.5807,8.5807,8.5807,8.5807,8.5807" d="
	M83.973,348.613c0,0-12.083,51.149-7.299,58.892c4.784,7.743,31.677,15.198,37.883,12.255c12.411-5.885,20.072-56.976,20.072-56.976
	"/>
<path fill="none" stroke="#181818" stroke-width="4.2903" stroke-miterlimit="10" d="M-52.772,316.31
	c0,0,36.759-174.266,68.091-185.601c27.437-9.925,148.587,16.502,162.841,38.468c18.584,28.636-23.452,197.248-23.452,197.248
	L-52.772,316.31z"/>
<polygon fill="#181818" points="-25.632,322.721 -41.586,376.262 -15.243,381.383 -3.16,330.234 "/>
<polygon fill="#181818" points="93.919,353.167 86.011,405.302 109.773,412.017 126.525,359.767 "/>
<circle fill="#181818" stroke="#FFFFFF" stroke-width="4.2903" stroke-miterlimit="10" cx="84.625" cy="98.589" r="9.117"/>
<circle fill="#181818" stroke="#FFFFFF" stroke-width="4.2903" stroke-miterlimit="10" cx="129.833" cy="108.993" r="11.53"/>
<line fill="#FECD02" stroke="#181818" stroke-width="21.4517" stroke-miterlimit="10" stroke-dasharray="8.5807,8.5807,8.5807,8.5807,8.5807,8.5807" x1="177.084" y1="206.395" x2="-4.301" y2="162.444"/>
<path fill="none" stroke="#FFFFFF" stroke-width="4.2903" stroke-miterlimit="10" d="M57.748,72.401
	c22.053-4.709,100.687,8.649,109.358,26.936c5.885,12.411-14.623,75.897-14.623,75.897L29.308,146.137
	C29.308,146.137,41.163,75.944,57.748,72.401z"/>
<line fill="none" stroke="#FFFFFF" stroke-width="17.1614" stroke-miterlimit="10" stroke-dasharray="8.5807,8.5807,8.5807,8.5807,8.5807,8.5807" x1="47.621" y1="133.931" x2="144.149" y2="154.53"/>
<polyline fill="none" stroke="#181818" stroke-width="4.2903" stroke-miterlimit="10" points="52.638,31.011 95.533,57.081 
	134.402,65.161 194.618,31.033 "/>
<polygon fill="#181818" points="187.949,281.7 175.808,328.427 184.406,329.356 193.266,310.509 189.625,330.589 199.266,331.765 
	206.59,314.759 207.371,334.781 216.461,333.622 230.007,294.942 "/>
<polygon fill="#181818" points="-48.02,221.549 -92.298,217.702 -98.594,253.686 -89.446,256.949 -83.166,239.697 -84.169,262.604 
	-71.643,265.563 -68.552,243.149 -66.728,263.418 -52.664,264.536 "/>
<polygon fill="none" stroke="#FFFFFF" stroke-width="4.2903" stroke-miterlimit="10" points="-7.458,259.786 146.293,299.413 
	135.443,345.342 -20.585,310.688 "/>
<polygon fill="#181818" points="2.052,270.849 132.534,301.673 125.193,337.411 -9.217,304.556 "/>
<polygon fill="#FFFFFF" stroke="#181818" stroke-width="4.2903" stroke-miterlimit="10" points="-15.446,125.646 -61.722,228.231 
	-74.001,224.228 -35.279,120.961 "/>
<polygon fill="#FFFFFF" stroke="#181818" stroke-width="4.2903" stroke-miterlimit="10" points="208.983,178.663 227.279,185.189 
	210.478,293.635 197.952,290.676 "/>
<circle fill="#FFFFFF" cx="48.762" cy="301.721" r="9.117"/>
<circle fill="#FFFFFF" cx="23.956" cy="294.759" r="9.117"/>
<circle fill="#FFFFFF" cx="97.273" cy="310.977" r="14.212"/>
<polygon fill="#181818" points="190.574,20.159 193.138,37.297 209.479,33.442 209.002,16.798 "/>
<polygon fill="#181818" points="41.517,36.099 63.455,22.545 57.57,10.134 30.413,22.455 "/>
<line fill="none" stroke="#181818" stroke-width="8.5807" stroke-miterlimit="10" stroke-dasharray="8.5807,8.5807,8.5807,8.5807,8.5807,8.5807" x1="123.257" y1="28.363" x2="109.694" y2="85.775"/>
<line fill="#FECD02" stroke="#181818" stroke-width="21.4517" stroke-miterlimit="10" stroke-dasharray="8.5807,8.5807,8.5807,8.5807,8.5807,8.5807" x1="-17.658" y1="195.658" x2="178.094" y2="244.105"/>
<line fill="#FECD02" stroke="#181818" stroke-width="21.4517" stroke-miterlimit="10" stroke-dasharray="8.5807,8.5807,8.5807,8.5807,8.5807,8.5807" x1="-27.028" y1="235.325" x2="169.71" y2="279.596"/>
<path fill="#181818" d="M8.374,136.783c0,0-19.644-10.151-28.866,0.896s13.06,24.025,13.06,24.025L8.374,136.783z"/>
<path fill="#181818" d="M181.103,175.383c0,0,26.779-1.389,24.674,16.85c-2.104,18.239-21.938,13.553-21.938,13.553L181.103,175.383
	z"/>
</svg>
